<svg width="33" height="29" viewBox="0 0 33 29" fill="none" xmlns="http://www.w3.org/2000/svg">
<path fill-rule="evenodd" clip-rule="evenodd" d="M7.42245 24.8203C7.84445 24.8203 8.18745 25.1633 8.18745 25.5853C8.18745 26.0073 7.84445 26.3493 7.42245 26.3493C7.00045 26.3493 6.65845 26.0073 6.65845 25.5853C6.65845 25.1633 7.00045 24.8203 7.42245 24.8203Z" stroke="#C92071" stroke-width="1.5" stroke-linecap="round" stroke-linejoin="round"/>
<path fill-rule="evenodd" clip-rule="evenodd" d="M18.6749 24.8203C19.0969 24.8203 19.4399 25.1633 19.4399 25.5853C19.4399 26.0073 19.0969 26.3493 18.6749 26.3493C18.2529 26.3493 17.9099 26.0073 17.9099 25.5853C17.9099 25.1633 18.2529 24.8203 18.6749 24.8203Z" stroke="#C92071" stroke-width="1.5" stroke-linecap="round" stroke-linejoin="round"/>
<path d="M2.75 8.25L4.83 8.61L5.793 20.083C5.871 21.018 6.652 21.736 7.59 21.736H18.502C19.398 21.736 20.158 21.078 20.287 20.19L21.236 13.632C21.353 12.823 20.726 12.099 19.909 12.099H5.164" stroke="#C92071" stroke-width="1.5" stroke-linecap="round" stroke-linejoin="round"/>
<path d="M14.1255 15.795H16.8985" stroke="#C92071" stroke-width="1.5" stroke-linecap="round" stroke-linejoin="round"/>
<circle cx="24.5" cy="8.5" r="8.5" fill="#EE4266"/>
<path d="M21.7074 13V11.6705L24.8139 8.79403C25.0781 8.53835 25.2997 8.30824 25.4787 8.10369C25.6605 7.89915 25.7983 7.69886 25.892 7.50284C25.9858 7.30398 26.0327 7.08949 26.0327 6.85938C26.0327 6.60369 25.9744 6.38352 25.858 6.19886C25.7415 6.01136 25.5824 5.8679 25.3807 5.76847C25.179 5.66619 24.9503 5.61506 24.6946 5.61506C24.4276 5.61506 24.1946 5.66903 23.9957 5.77699C23.7969 5.88494 23.6435 6.03977 23.5355 6.24148C23.4276 6.44318 23.3736 6.68324 23.3736 6.96165H21.6222C21.6222 6.39062 21.7514 5.89489 22.0099 5.47443C22.2685 5.05398 22.6307 4.72869 23.0966 4.49858C23.5625 4.26847 24.0994 4.15341 24.7074 4.15341C25.3324 4.15341 25.8764 4.2642 26.3395 4.4858C26.8054 4.70455 27.1676 5.00852 27.4261 5.39773C27.6847 5.78693 27.8139 6.23295 27.8139 6.7358C27.8139 7.06534 27.7486 7.39062 27.6179 7.71165C27.4901 8.03267 27.2614 8.3892 26.9318 8.78125C26.6023 9.17045 26.1378 9.63778 25.5384 10.1832L24.2642 11.4318V11.4915H27.929V13H21.7074Z" fill="white"/>
</svg>
